<svg width="35" height="35" viewBox="0 0 35 35" fill="none" xmlns="http://www.w3.org/2000/svg">
<circle cx="17.5" cy="17.5" r="17" fill="#D9D9D9" stroke="black"/>
<path fill-rule="evenodd" clip-rule="evenodd" d="M7.25 12C7.25 8.82436 9.82436 6.25 13 6.25H23C26.1756 6.25 28.75 8.82436 28.75 12V22C28.75 25.1756 26.1756 27.75 23 27.75H13C9.82436 27.75 7.25 25.1756 7.25 22V12ZM13 7.75C10.6528 7.75 8.75 9.65279 8.75 12V22C8.75 24.3472 10.6528 26.25 13 26.25H23C25.3472 26.25 27.25 24.3472 27.25 22V12C27.25 9.65279 25.3472 7.75 23 7.75H13Z" fill="black"/>
<path fill-rule="evenodd" clip-rule="evenodd" d="M8 12C8 9.23858 10.2386 7 13 7H23C25.7614 7 28 9.23858 28 12V22C28 22.7273 27.8447 23.4184 27.5655 24.0418L27.9211 21.5524C27.9701 21.2091 27.8378 20.8648 27.5713 20.6428L23.2628 17.0523C22.5476 16.4563 21.496 16.504 20.8377 17.1623L15.8485 22.1515C15.3799 22.6201 14.6201 22.6201 14.1515 22.1515L13.0782 21.0782C12.456 20.456 11.4752 20.3749 10.7592 20.8863L8.91876 22.2009C8.65597 22.3886 8.5 22.6917 8.5 23.0146V24.0194C8.5 24.0894 8.50734 24.1586 8.52154 24.2259C8.18774 23.5555 8 22.7997 8 22V12ZM25.238 26.3096L27.1641 24.7688C26.2679 26.1138 24.7374 27 23 27H13C11.2608 27 9.72892 26.112 8.83318 24.7646C8.84685 24.7768 8.86089 24.7887 8.87531 24.8002L10.7532 26.3025C10.9138 26.431 11.1102 26.5069 11.3155 26.5197L18.9272 26.9955C18.9757 26.9985 19.0243 26.998 19.0727 26.9939L24.6963 26.5253C24.8943 26.5088 25.0828 26.4337 25.238 26.3096ZM14 15C12.8954 15 12 14.1046 12 13C12 11.8954 12.8954 11 14 11C15.1046 11 16 11.8954 16 13C16 14.1046 15.1046 15 14 15Z" fill="black"/>
</svg>
