<svg width="150" height="228" viewBox="0 0 150 228" fill="none" xmlns="http://www.w3.org/2000/svg">
<rect x="3.89365" width="117.463" height="117.463" rx="58.7314" fill="#CDE1FD"/>
<g clip-path="url(#clip0_11_502)">
<path d="M94.8317 28.6702L101.685 22.6163H94.6946L94.8317 28.6702Z" fill="#002DE3"/>
<path d="M131.53 23.3018L97.4268 23.3018C92.2085 23.3018 87.9782 19.0715 87.9782 13.8531V9.44865C87.9782 4.23032 92.2085 2.67029e-05 97.4268 2.67029e-05L131.53 2.67029e-05C136.748 2.67029e-05 140.978 4.23032 140.978 9.44865V13.8531C140.978 19.0715 136.748 23.3018 131.53 23.3018Z" fill="#002DE3"/>
<path d="M107.396 13.7069C106.261 13.7069 105.34 12.7864 105.34 11.6509C105.34 10.5154 106.261 9.59485 107.396 9.59485C108.532 9.59485 109.452 10.5154 109.452 11.6509C109.452 12.7864 108.532 13.7069 107.396 13.7069Z" fill="white"/>
<path d="M114.478 13.7069C113.343 13.7069 112.422 12.7864 112.422 11.6509C112.422 10.5154 113.343 9.59485 114.478 9.59485C115.614 9.59485 116.534 10.5154 116.534 11.6509C116.534 12.7864 115.614 13.7069 114.478 13.7069Z" fill="white"/>
<path d="M121.56 13.7069C120.425 13.7069 119.504 12.7864 119.504 11.6509C119.504 10.5154 120.425 9.59485 121.56 9.59485C122.696 9.59485 123.616 10.5154 123.616 11.6509C123.616 12.7864 122.696 13.7069 121.56 13.7069Z" fill="white"/>
</g>
<path d="M127.264 99.5171L118.17 96.3219L111.209 116.134L120.302 119.329L127.264 99.5171Z" fill="#1F161E"/>
<path d="M132.978 195.212C133.37 195.829 135.457 199.541 136.613 199.921C138.707 200.602 149.546 196.693 149.838 196.177C150.13 195.66 149.964 194.806 149.353 194.732C148.741 194.659 143.903 195.391 143.119 195.286C142.335 195.18 140.521 193.914 140.308 193" fill="#1F161E"/>
<path d="M0.97821 138.244C0.97821 163.183 12.1723 168.42 23.3077 168.42C51.5144 168.42 88.2111 152.385 90.2832 151.767C89.6316 154.39 85.5201 220.885 85.5201 221.268C86.4975 221.809 93.9906 222.275 96.5122 221.809C97.1638 220.192 116.978 141.103 116.978 139.02C116.978 136.937 115.271 133.769 108.814 133.312C106.084 133.118 68.1035 132 68.1035 132" fill="#1F161E"/>
<path d="M95.8656 121C104.364 129.746 142.313 190.799 141.976 192.226C141.639 193.653 132.914 196.678 131.07 195.863C123.244 192.434 75.1987 134.81 73.3282 133.94C71.4576 133.07 68.655 133.406 66.9851 133.645C62.642 128.513 72.3638 122.418 95.8656 121Z" fill="#0F1828"/>
<path d="M57.5023 51.266C70.2797 51.266 73.9537 63.3647 75.0108 67.9327C78.3912 82.5176 68.9811 137.94 67.8913 139.468C58.6443 152.395 5.78609 153.543 0.630775 147.944C-4.52454 142.345 22.5898 51.266 57.5023 51.266Z" fill="#375FFF"/>
<path d="M86.9754 221C86.804 221.63 85.5116 225.318 86.1578 226.039C87.3183 227.343 99.3916 228.242 100.051 227.942C100.71 227.642 101.258 226.908 100.822 226.639C100.387 226.37 95.8111 225.162 95.2507 224.788C94.6902 224.415 94.222 222.755 94.7957 221.956" fill="#1F161E"/>
<path d="M55.5903 53.8175C55.2445 54.9269 64.263 57.7329 64.6089 56.6301L68.1066 45.4058L59.0946 42.5933L55.5903 53.8175Z" fill="#F8CDBA"/>
<path d="M64.5305 48.0618C63.6496 47.7877 57.2478 48.5251 56.8171 49.9086L59.0946 42.5933C60.4976 43.0305 64.5305 48.0618 64.5305 48.0618Z" fill="#1F161E"/>
<path d="M69.5619 49.8629C76.8745 49.8629 82.8025 43.9349 82.8025 36.6223C82.8025 29.3096 76.8745 23.3816 69.5619 23.3816C62.2492 23.3816 56.3212 29.3096 56.3212 36.6223C56.3212 43.9349 62.2492 49.8629 69.5619 49.8629Z" fill="#F8CDBA"/>
<path d="M82.7687 43.5974C82.9673 42.9609 82.1354 42.1351 80.9106 41.7529C79.6858 41.3708 78.5319 41.5769 78.3333 42.2134C78.1347 42.8499 78.9666 43.6757 80.1914 44.0579C81.4162 44.44 82.5701 44.2339 82.7687 43.5974Z" fill="#FA9E9F"/>
<path d="M68.8465 39.2561C69.0451 38.6196 68.2132 37.7938 66.9884 37.4116C65.7636 37.0295 64.6097 37.2356 64.4111 37.8721C64.2125 38.5086 65.0444 39.3344 66.2692 39.7165C67.494 40.0987 68.6479 39.8926 68.8465 39.2561Z" fill="#FA9E9F"/>
<path d="M75.8983 38.8345C76.1267 39.5523 77.4841 42.6977 74.9325 43.0044" stroke="#0F1828" stroke-width="1.2" stroke-miterlimit="10" stroke-linecap="round"/>
<path d="M69.5553 44.5053C68.9028 44.2769 68.1197 43.1545 67.813 42.2344" stroke="#0F1828" stroke-width="1.2" stroke-miterlimit="10" stroke-linecap="round"/>
<path d="M73.5687 19.2508C70.0774 18.8136 59.943 15.7987 57.6394 13.704C56.5496 14.2782 52.3144 18.0827 48.8623 23.2315L53.7631 28.1584L47.5702 25.3002C45.9381 27.9745 44.8163 30.9284 44.2617 34.012C45.8605 38.3255 50.8788 40.1005 51.825 40.2179C57.9265 40.988 60.2693 31.5061 63.3429 30.3315C68.5634 28.3281 74.7107 33.5291 82.4436 33.2028C84.1599 29.6985 81.9281 20.3015 73.5687 19.2508Z" fill="#1F161E"/>
<path d="M57.424 37.4901C59.1143 37.4901 60.4846 36.1199 60.4846 34.4296C60.4846 32.7393 59.1143 31.369 57.424 31.369C55.7337 31.369 54.3635 32.7393 54.3635 34.4296C54.3635 36.1199 55.7337 37.4901 57.424 37.4901Z" fill="#F8CDBA"/>
<path d="M44.2617 82.3023C43.6091 86.3874 41.4948 124.961 46.5587 128.713C57.4045 136.746 107.489 126.919 115.079 124.106C115.901 121.417 115.079 112.875 115.079 112.875C112.155 112.758 75.2719 112.405 73.0727 109.612C70.8735 106.819 70.6125 83.9859 70.9649 81.4083" fill="#375FFF"/>
<path d="M120.182 125C124.099 125 127.275 121.824 127.275 117.907C127.275 113.989 124.099 110.813 120.182 110.813C116.264 110.813 113.088 113.989 113.088 117.907C113.088 121.824 116.264 125 120.182 125Z" fill="#F8CDBA"/>
<path d="M73.0662 109.632C70.8409 106.819 70.606 84.0055 70.9584 81.4278" stroke="#0F1828" stroke-linecap="round" stroke-linejoin="round"/>
<path d="M69.601 131.611C59.3817 132.178 50.448 131.611 46.5587 128.713C44.34 127.075 43.4982 118.768 43.2959 109.599" stroke="#0F1828" stroke-linecap="round" stroke-linejoin="round"/>
<defs>
<clipPath id="clip0_11_502">
<rect width="53" height="28.6703" fill="white" transform="matrix(-1 0 0 1 140.978 0)"/>
</clipPath>
</defs>
</svg>
