<svg width="110" height="100" viewBox="0 0 110 100" fill="none" xmlns="http://www.w3.org/2000/svg">
<g clip-path="url(#clip0_11_533)">
<rect x="10" width="100" height="100" rx="50" fill="#CDE1FD"/>
<g clip-path="url(#clip1_11_533)">
<path d="M24.0939 56.6803C22.9725 55.8936 18.2176 50.1129 17.6569 48.1701C17.0962 46.2272 16.6746 38.9036 22.2206 40.5682C27.7666 42.2329 25.2631 48.1005 29.1748 51.7993" fill="#F8CDBA"/>
<path d="M22.2378 35.3285L17.2208 39.3336L25.9468 50.2645L30.9638 46.2594L22.2378 35.3285Z" fill="#1F161E"/>
<path d="M92.8016 51.7993C94.1664 53.0685 108.123 76.5737 108.123 79.5162C108.123 82.4588 104.902 100.305 103.05 104.112C101.199 107.92 92.8016 51.7993 92.8016 51.7993Z" fill="#1F161E"/>
<path d="M84.5913 45.2581C104.68 45.2581 107.306 116.052 105.889 118.899C104.472 121.746 69.3442 121.416 66.4973 118.899C63.6504 116.382 66.1148 45.2581 84.5913 45.2581Z" fill="#002DE3"/>
<path d="M80.9795 47.6225C80.9795 48.8829 87.9337 48.9785 87.9337 47.6225V39.1731H80.9795V47.6225Z" fill="#F8CDBA"/>
<path d="M87.9424 44.2105C87.9424 43.4586 86.2038 40.8638 84.8999 41.3028C86.5385 40.7247 87.3469 38.7515 87.9424 39.1557V44.2105Z" fill="#0F1828"/>
<path d="M81.3706 42.0156C86.3659 42.0156 90.4154 37.9661 90.4154 32.9707C90.4154 27.9754 86.3659 23.9259 81.3706 23.9259C76.3753 23.9259 72.3257 27.9754 72.3257 32.9707C72.3257 37.9661 76.3753 42.0156 81.3706 42.0156Z" fill="#F8CDBA"/>
<path d="M72.2258 34.9701C73.0587 34.9701 73.734 34.6179 73.734 34.1834C73.734 33.7489 73.0587 33.3967 72.2258 33.3967C71.3928 33.3967 70.7176 33.7489 70.7176 34.1834C70.7176 34.6179 71.3928 34.9701 72.2258 34.9701Z" fill="#FA9E9F"/>
<path d="M81.7096 34.9701C82.5426 34.9701 83.2178 34.6179 83.2178 34.1834C83.2178 33.7489 82.5426 33.3967 81.7096 33.3967C80.8767 33.3967 80.2014 33.7489 80.2014 34.1834C80.2014 34.6179 80.8767 34.9701 81.7096 34.9701Z" fill="#FA9E9F"/>
<path d="M75.8985 32.5536C75.6203 32.9578 74.16 34.6485 75.6986 35.3309" stroke="#0F1828" stroke-width="0.69" stroke-miterlimit="10" stroke-linecap="round"/>
<path d="M78.7497 37.3042C79.1843 37.3042 79.9015 36.7435 80.2709 36.235" stroke="#0F1828" stroke-width="0.69" stroke-miterlimit="10" stroke-linecap="round"/>
<path d="M90.0156 27.6986C90.0156 24.5605 85.6388 22.2222 82.5919 22.2222C77.7414 22.2222 71.8303 23.4044 70.8567 23.7478C69.2224 24.3171 68.9443 26.06 68.9443 26.6424C68.9443 29.0851 69.8136 30.6064 72.5257 30.9888C72.7114 30.1272 73.0311 29.3 73.4732 28.5375C74.2236 28.249 75.0519 28.2351 75.8116 28.4984C76.4983 28.7374 82.2355 31.4409 86.482 31.4409C87.047 32.2362 88.2901 37.0912 87.925 39.1514C89.168 39.2252 91.4586 35.1788 91.5759 33.0664C91.6025 32.3415 91.4591 31.6204 91.1572 30.9608C90.8553 30.3012 90.4034 29.7214 89.8374 29.2677C89.8939 28.8113 90.0156 27.9464 90.0156 27.6986Z" fill="#0F1828"/>
<path d="M86.8818 35.3917C87.9812 35.3917 88.8725 34.5004 88.8725 33.401C88.8725 32.3016 87.9812 31.4104 86.8818 31.4104C85.7824 31.4104 84.8912 32.3016 84.8912 33.401C84.8912 34.5004 85.7824 35.3917 86.8818 35.3917Z" fill="#F8CDBA"/>
<path d="M89.8722 64.3821C84.8912 71.9927 57.961 83.9974 55.1271 83.9974C47.6122 83.9974 25.363 59.3056 24.0939 56.6716C25.5586 55.1069 28.6793 51.7906 29.1661 51.7906C29.6529 51.7906 50.8329 66.4293 54.8359 66.4293C58.8389 66.4293 77.8109 53.0815 80.2797 52.4817" fill="#002DE3"/>
<path d="M73.5688 56.3022C76.8504 54.2637 79.4626 52.6773 80.2797 52.4817" stroke="#0F1828" stroke-linecap="round" stroke-linejoin="round"/>
<path d="M67.9316 78.9209C76.6244 74.744 86.9731 68.8242 89.8722 64.3909" stroke="#0F1828" stroke-linecap="round" stroke-linejoin="round"/>
<path d="M66.5277 89.6912C66.7059 87.9918 75.5117 75.07 77.2112 74.0703C75.4074 75.0743 68.5792 78.5384 67.9316 78.9209C67.5535 79.9336 66.5277 89.6912 66.5277 89.6912Z" fill="#1F161E"/>
</g>
</g>
<g clip-path="url(#clip2_11_533)">
<path d="M40.9224 26.4246L34.8448 21.056H41.044L40.9224 26.4246Z" fill="#375FFF"/>
<path d="M8.37897 21.6638L38.621 21.6638C43.2486 21.6638 47 17.9124 47 13.2849V9.37899C47 4.75141 43.2486 1.00002 38.621 1.00002L8.37897 1.00002C3.75139 1.00002 0 4.75141 0 9.37899V13.2849C0 17.9124 3.75139 21.6638 8.37897 21.6638Z" fill="#375FFF"/>
<path d="M29.7802 13.1552C30.7872 13.1552 31.6035 12.3389 31.6035 11.3319C31.6035 10.325 30.7872 9.50867 29.7802 9.50867C28.7732 9.50867 27.9569 10.325 27.9569 11.3319C27.9569 12.3389 28.7732 13.1552 29.7802 13.1552Z" fill="white"/>
<path d="M23.5 13.1552C24.507 13.1552 25.3233 12.3389 25.3233 11.3319C25.3233 10.325 24.507 9.50867 23.5 9.50867C22.493 9.50867 21.6767 10.325 21.6767 11.3319C21.6767 12.3389 22.493 13.1552 23.5 13.1552Z" fill="white"/>
<path d="M17.2198 13.1552C18.2268 13.1552 19.0431 12.3389 19.0431 11.3319C19.0431 10.325 18.2268 9.50867 17.2198 9.50867C16.2129 9.50867 15.3965 10.325 15.3965 11.3319C15.3965 12.3389 16.2129 13.1552 17.2198 13.1552Z" fill="white"/>
</g>
<defs>
<clipPath id="clip0_11_533">
<rect x="10" width="100" height="100" rx="50" fill="white"/>
</clipPath>
<clipPath id="clip1_11_533">
<rect width="111.111" height="219.523" fill="white" transform="translate(17.2222 22.2222)"/>
</clipPath>
<clipPath id="clip2_11_533">
<rect width="47" height="25.4246" fill="white" transform="translate(0 1)"/>
</clipPath>
</defs>
</svg>
